# xmcd
#
# Track frame offsets:
#	150
#	14067
#	26990
#	39657
#	54822
#	66017
#	78575
#	91897
#	104892
#	106537
#	121992
#	132912
#	146195
#	161070
#	176485
#	190545
#	203715
#
# Disc length: 2991 seconds
#
# Revision: 0
# Processed by: cddbd v1.4PL0 Copyright (c) Steve Scherf et al.
# Submitted via: dBpowerAMP V4.0
#
DISCID=eb0bad11
DTITLE=Various Artist - Joe Louis An American Hero
DYEAR=2001
DGENRE=Blues
TTITLE0=Joe Pullum - Joe Louis Is The Man
TTITLE1=Memphis Minnie - He's In The Ring (Doin' The Same Old Thing)
TTITLE2=Carl Martin - Joe Louis Blues
TTITLE3=Lil Johnson - Winner Joe (The Knock-Out King)
TTITLE4=Lion and Atillla wGerald Clark and His Caribbean Serenaders - Louis-Schmeling Fight
TTITLE5=Billy Hicks and His Sizzlin'Six - Joe The Bomber
TTITLE6=Bill Gaither - Champ Joe Louis (King Of The Gloves)
TTITLE7=Jack Sneed and His Sneezers - Big Joe Louis
TTITLE8=Sampson Pittman - Interview W (Commentary On Joe Louis)
TTITLE9=Sampson Pittman - Joe Louis
TTITLE10=Jack Kelly and South Memphis Jug Band - Joe Louis Special
TTITLE11=John Lee 'Sonny Boy' Williamson - Joe Louis and John Henry Blues
TTITLE12=Rev J.M. Gates - Joe Louis' Wrist and His Fist
TTITLE13=Count Basie and His Orch - King Joe, Pt 1
TTITLE14=Cab Calloway and His Orch - Let's Go Joe
TTITLE15=The Dixieaires - Joe Louis Is A Fightin' Man
TTITLE16=Renee Manning - Joe Louis Blues
EXTD=william hale
EXTT0=
EXTT1=
EXTT2=
EXTT3=
EXTT4=
EXTT5=
EXTT6=
EXTT7=
EXTT8=
EXTT9=
EXTT10=
EXTT11=
EXTT12=
EXTT13=
EXTT14=
EXTT15=
EXTT16=
PLAYORDER=
